<svg width="260" height="66" viewBox="0 0 260 66" fill="none" xmlns="http://www.w3.org/2000/svg">
<path fill-rule="evenodd" clip-rule="evenodd" d="M56.0654 9.75781H53.3377V55.9715H56.0654V9.75781ZM47.8771 13.9197H50.6086V54.7214H47.8779V13.9197H47.8771ZM42.418 31.5731H45.1494V50.9743H42.418V31.5731ZM61.5283 13.9205H58.7969V53.4729H61.5283V13.9205ZM64.3848 16.1277H67.1162V49.0203H64.3848V16.1277ZM85.788 33.6298H100.024C102.54 33.6298 104.591 35.7844 104.588 38.4271V39.1812C104.586 40.4538 104.104 41.6737 103.248 42.5736C102.392 43.4734 101.232 43.9798 100.021 43.9817H88.4725V47.7447H85.788V33.6298ZM100.024 41.1598C100.522 41.1588 100.999 40.9503 101.352 40.58C101.704 40.2098 101.902 39.7079 101.903 39.1844V38.4279C101.902 37.9043 101.704 37.4022 101.352 37.0318C101 36.6613 100.522 36.4527 100.024 36.4517H88.4756V41.1598H100.024ZM217.395 38.4303C217.393 37.1577 216.911 35.9378 216.055 35.0379C215.199 34.1381 214.039 33.6317 212.828 33.6298H198.592V47.7447H201.277V43.9817H212.825C213.323 43.9823 213.801 44.1906 214.154 44.561C214.506 44.9313 214.704 45.4334 214.705 45.9572V47.7447H217.392V45.9572C217.392 45.3279 217.275 44.7046 217.046 44.1232C216.816 43.5418 216.48 43.0137 216.057 42.5692C216.48 42.1246 216.816 41.5965 217.046 41.0151C217.275 40.4337 217.392 39.8105 217.392 39.1812V38.4303H217.395ZM201.28 41.1598V36.4541H212.828C213.327 36.4547 213.804 36.6631 214.157 37.0336C214.509 37.4042 214.707 37.9065 214.707 38.4303V39.1844C214.707 39.708 214.508 40.2099 214.156 40.58C213.804 40.9502 213.326 41.1584 212.828 41.159L201.28 41.1598ZM107.275 33.629H109.962V47.7439H107.275V33.6298V33.629ZM126.883 33.629H117.213C116.003 33.6303 114.842 34.1365 113.986 35.0365C113.129 35.9365 112.648 37.1567 112.647 38.4295V42.9466C112.648 44.2192 113.13 45.4391 113.986 46.339C114.842 47.2388 116.003 47.7452 117.213 47.7471H126.883C128.093 47.7452 129.254 47.2388 130.11 46.339C130.966 45.4391 131.448 44.2192 131.449 42.9466V38.4303C131.446 35.7844 129.4 33.6298 126.883 33.6298V33.629ZM128.762 42.9466C128.761 43.4703 128.563 43.9724 128.211 44.3428C127.859 44.7131 127.381 44.9214 126.883 44.9221H117.213C116.715 44.9212 116.238 44.7129 115.886 44.3428C115.534 43.9727 115.335 43.4709 115.334 42.9474V38.4303C115.335 37.9068 115.533 37.4049 115.885 37.0347C116.237 36.6644 116.715 36.4559 117.213 36.4549H126.883C127.381 36.4555 127.858 36.6637 128.211 37.0339C128.563 37.404 128.761 37.9059 128.762 38.4295V42.9466ZM174.421 47.7439H155.621V33.6298H174.421V36.4517H158.306V39.2767H174.421V42.101H158.306V44.9229H174.421V47.7439ZM148.367 33.629H134.131V47.7439H136.815V36.4517H148.364C148.862 36.4523 149.34 36.6606 149.692 37.0309C150.045 37.4012 150.243 37.9033 150.244 38.4271V47.7447H152.931V38.4303C152.931 37.1578 152.45 35.9373 151.594 35.0372C150.738 34.1371 149.578 33.6309 148.367 33.6298V33.629ZM195.908 47.7439H177.108V33.6298H195.908V36.4517H179.792V39.2767H195.908V42.101H179.792V44.9229H195.908V47.7439Z" fill="black"/>
</svg>
