<svg width="520" height="520" viewBox="0 0 520 520" fill="none" xmlns="http://www.w3.org/2000/svg" style="">
<path stroke="white" stroke-width="1.5" d="M0.75,260A259.25,259.25 0,1,1 519.25,260A259.25,259.25 0,1,1 0.75,260" class="IoGsrMng_0"></path>
<path d="M260.007 507C281.421 507 298.781 396.414 298.781 260C298.781 123.586 281.421 13 260.007 13C238.592 13 221.232 123.586 221.232 260C221.232 396.414 238.592 507 260.007 507Z" stroke="white" stroke-width="1.24121" stroke-miterlimit="10" class="IoGsrMng_1"></path>
<path d="M260 298.774C396.414 298.774 507 281.414 507 259.999C507 238.585 396.414 221.224 260 221.224C123.586 221.224 13 238.585 13 259.999C13 281.414 123.586 298.774 260 298.774Z" stroke="white" stroke-width="1.24121" stroke-miterlimit="10" class="IoGsrMng_2"></path>
<path d="M260 299.042C396.414 299.042 507 281.682 507 260.267C507 238.852 396.414 221.492 260 221.492C123.586 221.492 13 238.852 13 260.267C13 281.682 123.586 299.042 260 299.042Z" stroke="white" stroke-width="1.24121" stroke-miterlimit="10" class="IoGsrMng_3"></path>
<path d="M260.007 507C281.421 507 298.781 396.414 298.781 260C298.781 123.586 281.421 13 260.007 13C238.592 13 221.232 123.586 221.232 260C221.232 396.414 238.592 507 260.007 507Z" stroke="white" stroke-width="1.24121" stroke-miterlimit="10" class="IoGsrMng_4"></path>
<path d="M260 298.774C396.414 298.774 507 281.414 507 259.999C507 238.585 396.414 221.224 260 221.224C123.586 221.224 13 238.585 13 259.999C13 281.414 123.586 298.774 260 298.774Z" stroke="white" stroke-width="1.24121" stroke-miterlimit="10" class="IoGsrMng_5"></path>
<path d="M434.666 434.624C449.808 419.482 383.888 329.011 287.429 232.551C190.969 136.092 100.498 70.1712 85.3553 85.3136C70.2128 100.456 136.133 190.927 232.593 287.387C329.052 383.846 419.524 449.767 434.666 434.624Z" stroke="white" stroke-width="1.24121" stroke-miterlimit="10" class="IoGsrMng_6"></path>
<path d="M260.007 507C281.421 507 298.781 396.414 298.781 260C298.781 123.586 281.421 13 260.007 13C238.592 13 221.232 123.586 221.232 260C221.232 396.414 238.592 507 260.007 507Z" stroke="white" stroke-width="1.24121" stroke-miterlimit="10" class="IoGsrMng_7"></path>
<path d="M260 298.774C396.414 298.774 507 281.414 507 259.999C507 238.585 396.414 221.224 260 221.224C123.586 221.224 13 238.585 13 259.999C13 281.414 123.586 298.774 260 298.774Z" stroke="white" stroke-width="1.24121" stroke-miterlimit="10" class="IoGsrMng_8"></path>
<path d="M287.429 287.392C383.888 190.933 449.808 100.461 434.666 85.3189C419.524 70.1765 329.052 136.097 232.593 232.556C136.133 329.016 70.2128 419.487 85.3553 434.63C100.498 449.772 190.969 383.852 287.429 287.392Z" stroke="white" stroke-width="1.24121" stroke-miterlimit="10" class="IoGsrMng_9"></path>
<path d="M434.666 434.624C449.808 419.482 383.888 329.011 287.429 232.551C190.969 136.092 100.498 70.1712 85.3553 85.3136C70.2128 100.456 136.133 190.927 232.593 287.387C329.052 383.846 419.524 449.767 434.666 434.624Z" stroke="white" stroke-width="1.24121" stroke-miterlimit="10" class="IoGsrMng_10"></path>
<style data-made-with="vivus-instant">.IoGsrMng_0{stroke-dasharray:1630 1632;stroke-dashoffset:1631;animation:IoGsrMng_draw 2000ms linear 0ms forwards;}.IoGsrMng_1{stroke-dasharray:1022 1024;stroke-dashoffset:1023;animation:IoGsrMng_draw 2000ms linear 100ms forwards;}.IoGsrMng_2{stroke-dasharray:1022 1024;stroke-dashoffset:1023;animation:IoGsrMng_draw 2000ms linear 200ms forwards;}.IoGsrMng_3{stroke-dasharray:1022 1024;stroke-dashoffset:1023;animation:IoGsrMng_draw 2000ms linear 300ms forwards;}.IoGsrMng_4{stroke-dasharray:1022 1024;stroke-dashoffset:1023;animation:IoGsrMng_draw 2000ms linear 400ms forwards;}.IoGsrMng_5{stroke-dasharray:1022 1024;stroke-dashoffset:1023;animation:IoGsrMng_draw 2000ms linear 500ms forwards;}.IoGsrMng_6{stroke-dasharray:1022 1024;stroke-dashoffset:1023;animation:IoGsrMng_draw 2000ms linear 600ms forwards;}.IoGsrMng_7{stroke-dasharray:1022 1024;stroke-dashoffset:1023;animation:IoGsrMng_draw 2000ms linear 700ms forwards;}.IoGsrMng_8{stroke-dasharray:1022 1024;stroke-dashoffset:1023;animation:IoGsrMng_draw 2000ms linear 800ms forwards;}.IoGsrMng_9{stroke-dasharray:1022 1024;stroke-dashoffset:1023;animation:IoGsrMng_draw 2000ms linear 900ms forwards;}.IoGsrMng_10{stroke-dasharray:1022 1024;stroke-dashoffset:1023;animation:IoGsrMng_draw 2000ms linear 1000ms forwards;}@keyframes IoGsrMng_draw{100%{stroke-dashoffset:0;}}@keyframes IoGsrMng_fade{0%{stroke-opacity:1;}94.44444444444444%{stroke-opacity:1;}100%{stroke-opacity:0;}}</style></svg>
