<svg width="98" height="27" viewBox="0 0 98 27" fill="none" xmlns="http://www.w3.org/2000/svg">
<g clip-path="url(#clip0_3341_35380)">
<path fill-rule="evenodd" clip-rule="evenodd" d="M0 9.375H5.47983C9.46517 9.375 11.7508 11.296 11.7508 14.6948V14.7834C11.7508 18.1231 9.49446 20.0146 5.53844 20.0146H3.36994V26.3687H0V9.375ZM5.47983 17.4729C7.41388 17.4729 8.43952 16.5271 8.43952 14.7834V14.6948C8.43952 12.9215 7.50179 12.094 5.47983 12.094H3.39925V17.4729H5.47983Z" fill="black"/>
<path fill-rule="evenodd" clip-rule="evenodd" d="M17.2293 16.0543H19.9839C23.852 16.0543 25.9913 17.8571 25.9913 21.1081V21.1967C25.9913 24.4773 23.764 26.3687 19.9253 26.3687H13.8594V9.375H24.5553V12.1236H17.2293V16.0543ZM19.6909 18.596H17.2V23.6793H19.8081C21.7421 23.6793 22.7092 22.8222 22.7092 21.1672V21.0785C22.7092 19.3939 21.7421 18.596 19.6909 18.596Z" fill="black"/>
<path d="M34.314 17.5024L41.2884 9.375H37.5669L31.4424 16.6749V9.40454H28.1016V26.3983H31.4716V18.8619L37.5961 26.3688H41.6108L34.314 17.5024Z" fill="black"/>
<mask id="mask0_3341_35380" style="mask-type:luminance" maskUnits="userSpaceOnUse" x="45" y="0" width="53" height="27">
<path d="M97.875 0H45V26.325H97.875V0Z" fill="white"/>
</mask>
<g mask="url(#mask0_3341_35380)">
<path d="M53.55 8.77508L45.0113 17.3234H45C45 16.6648 45.036 16.0181 45.18 15.4038C45.1978 15.3246 45.2601 15.2565 45.2779 15.1805L51.3799 9.14599C51.4471 9.12858 51.4712 9.0312 51.5401 9.01617C52.0884 8.88652 52.648 8.80831 53.2114 8.78264C53.3155 8.76833 53.4076 8.77495 53.55 8.77508Z" fill="black"/>
<path d="M56.9254 9.44971L48.9379 17.55H47.0254L55.4557 9C55.9579 9.10456 56.45 9.25508 56.9254 9.44971Z" fill="black"/>
<path d="M59.8496 11.1408L52.882 17.5516H50.8496L58.6749 10.3516C59.0884 10.5858 59.4813 10.8497 59.8496 11.1408Z" fill="black"/>
<path d="M61.6508 13.0177L56.6799 17.5469H55.0261H54.6758L60.7929 11.9219C61.1094 12.2657 61.3963 12.6321 61.6508 13.0177Z" fill="black"/>
<path d="M62.7742 15.6724L60.7933 17.5463H59.2701L58.9492 17.5469L62.324 14.1719C62.52 14.6573 62.6705 15.1595 62.7742 15.6724Z" fill="black"/>
<path d="M53.55 0H45V8.79669V17.55C45 15.1309 45.9983 12.984 47.5465 11.4019C48.6571 10.2523 50.0539 9.43605 51.5855 9.04181C52.2265 8.87899 52.8894 8.77556 53.55 8.775V0Z" fill="black"/>
<path d="M62.5508 0H53.5508V8.775H62.5508V0Z" fill="#FFCC66"/>
<path d="M54 26.3219C55.1525 26.3219 56.2936 26.0948 57.3583 25.6538C58.4228 25.2129 59.3903 24.5664 60.2051 23.7517C61.02 22.9368 61.6664 21.9695 62.1072 20.9049C62.5482 19.8402 62.775 18.6992 62.775 17.5469H54.0009L54 26.3219Z" fill="#FFCC66"/>
<path d="M89.2097 24.2969L89.3258 24.487V26.1333L89.2097 26.3219C88.5687 26.3241 87.929 26.2632 87.3008 26.1401L89.2097 24.2969Z" fill="black"/>
<path d="M89.1 20.25V20.6768V22.2352L85.6836 25.65C85.2302 25.4732 84.7924 25.2603 84.375 25.0137L89.1 20.25Z" fill="black"/>
<path d="M89.2191 17.2113L89.3246 17.3446V18.0233L89.2191 18.2009L83.311 24.3016C82.9652 23.9971 82.6437 23.6646 82.3496 23.3068L88.2529 17.2113L88.4201 17.1016H89.0974L89.2191 17.2113Z" fill="black"/>
<path d="M86.175 17.4328L81.6455 22.0531C81.3949 21.6348 81.1789 21.1958 81 20.7409L84.2418 17.4369L84.4717 17.3281H85.9518L86.175 17.4328Z" fill="black"/>
<path d="M82.1242 17.4442L80.4907 19.3531C80.3796 18.7251 80.3238 18.0855 80.3242 17.4442L80.4396 17.3281H81.9631L82.1242 17.4442Z" fill="black"/>
<path d="M90.6754 8.95862L88.7656 10.7984L88.6504 10.5715V8.90145L88.7672 8.77344C89.4082 8.77277 90.0474 8.8348 90.6754 8.95862Z" fill="#FFCC66"/>
<path d="M93.6004 10.099L88.7636 14.6281L88.6504 14.3512V12.8453L88.7651 12.6946L92.227 9.45312L93.6004 10.099Z" fill="#FFCC66"/>
<path d="M89.8542 17.5469L95.85 11.8133C95.5341 11.4484 95.1894 11.1086 94.8193 10.7969L88.875 16.6243V17.5469H89.8542Z" fill="#FFCC66"/>
<path d="M97.4254 14.4214L94.0427 17.8829L93.8294 17.9969H92.1885L92.0254 17.8829L96.7504 13.0469C97.013 13.4847 97.2386 13.9446 97.4254 14.4214Z" fill="#FFCC66"/>
<path d="M97.875 17.7123L97.7224 18.0016H95.8669L95.625 17.8855L97.6682 15.9766C97.8061 16.6047 97.8754 17.0711 97.875 17.7123Z" fill="#FFCC66"/>
<path d="M73.3508 8.94771L71.5508 10.7984V8.77344C72.1205 8.77281 72.7926 8.8312 73.3508 8.94771Z" fill="black"/>
<path d="M76.2758 10.0904L71.5508 14.6281V12.8002L74.9647 9.45312C74.9647 9.45312 75.3897 9.59688 75.6852 9.74063C75.9806 9.88438 76.2758 10.0904 76.2758 10.0904Z" fill="black"/>
<path d="M78.3008 11.7672L72.471 17.5469H71.7895H71.5508V17.2761V16.5798L71.6579 16.4726L77.3355 10.7969C77.6823 11.0944 78.0051 11.4189 78.3008 11.7672Z" fill="black"/>
<path d="M79.8746 14.1402L76.3304 17.5531H74.7133H74.4746L79.2093 12.8281C79.468 13.2461 79.6906 13.685 79.8746 14.1402Z" fill="black"/>
<path d="M80.3258 17.5497H80.1966H78.6266L78.3008 17.55L80.151 15.75C80.2675 16.3083 80.326 16.9799 80.3258 17.5497Z" fill="black"/>
<path d="M89.0992 8.77344C86.7729 8.77321 84.5418 9.69744 82.8964 11.3429C81.251 12.9884 80.3258 15.2205 80.3242 17.5484H89.0992V8.77344Z" fill="#FFCC66"/>
<path d="M89.0996 26.3219C91.4259 26.3221 93.657 25.3978 95.3024 23.7524C96.9478 22.1069 97.873 19.8748 97.8746 17.5469H89.103V26.3219H89.0996Z" fill="black"/>
<path d="M69.75 26.1358L71.55 24.2969C71.55 24.2969 71.55 26.0325 71.5491 26.3219C70.9499 26.3219 70.3501 26.2928 69.75 26.1358Z" fill="black"/>
<path d="M71.5508 20.4766V22.4101L68.3288 25.6516C67.8855 25.4727 67.458 25.2567 67.0508 25.0058L71.5508 20.4766Z" fill="black"/>
<path d="M68.6242 17.5469L64.0954 22.2719C63.8443 21.8441 63.6283 21.395 63.4492 20.9295L66.6921 17.5469H68.6242Z" fill="black"/>
<path d="M64.8004 17.5469L62.9606 19.3469C62.8368 18.7546 62.7747 18.1515 62.7754 17.5469H64.8004Z" fill="black"/>
<path d="M71.5508 17.5469V18.5304L65.7872 24.2969C65.4328 23.9947 65.1032 23.6651 64.8008 23.3109L70.561 17.5469H71.5508Z" fill="black"/>
<path d="M71.5504 8.77344C69.2241 8.77344 66.993 9.69776 65.3476 11.3432C63.7022 12.9887 62.777 15.2206 62.7754 17.5484H71.5504V8.77344Z" fill="#FFCC66"/>
<path d="M71.5508 26.3219C73.8771 26.3221 76.1082 25.3978 77.7536 23.7524C79.399 22.1069 80.3242 19.8748 80.3258 17.5469H71.5508V26.3219Z" fill="#FFCC66"/>
</g>
</g>
<defs>
<clipPath id="clip0_3341_35380">
<rect width="97.875" height="27" fill="white"/>
</clipPath>
</defs>
</svg>
