<svg width="52" height="47" viewBox="0 0 52 47" fill="none" xmlns="http://www.w3.org/2000/svg">
<path d="M51.5 13.5C51.5 16.9464 48.7996 20.1903 44.1544 22.6022C39.534 25.0012 33.1162 26.5 26 26.5C18.8838 26.5 12.466 25.0012 7.84563 22.6022C3.20044 20.1903 0.5 16.9464 0.5 13.5C0.5 10.0536 3.20044 6.80973 7.84563 4.39781C12.466 1.99875 18.8838 0.5 26 0.5C33.1162 0.5 39.534 1.99875 44.1544 4.39781C48.7996 6.80973 51.5 10.0536 51.5 13.5Z" stroke="white"/>
<path d="M51.5 23.5C51.5 26.9464 48.7996 30.1903 44.1544 32.6022C39.534 35.0012 33.1162 36.5 26 36.5C18.8838 36.5 12.466 35.0012 7.84563 32.6022C3.20044 30.1903 0.5 26.9464 0.5 23.5C0.5 20.0536 3.20044 16.8097 7.84563 14.3978C12.466 11.9988 18.8838 10.5 26 10.5C33.1162 10.5 39.534 11.9988 44.1544 14.3978C48.7996 16.8097 51.5 20.0536 51.5 23.5Z" stroke="white"/>
<path d="M51.5 33C51.5 36.5939 48.787 39.9612 44.1477 42.4593C39.5288 44.9464 33.1135 46.5 26 46.5C18.8865 46.5 12.4712 44.9464 7.85227 42.4593C3.213 39.9612 0.5 36.5939 0.5 33C0.5 29.4061 3.213 26.0388 7.85227 23.5407C12.4712 21.0536 18.8865 19.5 26 19.5C33.1135 19.5 39.5288 21.0536 44.1477 23.5407C48.787 26.0388 51.5 29.4061 51.5 33Z" stroke="white"/>
</svg>
