<svg width="96" height="47" viewBox="0 0 96 47" fill="none" xmlns="http://www.w3.org/2000/svg">
<path d="M68.8515 20.8515C57.3355 20.8515 48 11.516 48 0" stroke="white"/>
<path d="M27.0001 21.6563C38.516 21.6563 47.8516 30.9919 47.8516 42.5078" stroke="white"/>
<path d="M48.0001 42.5077C48.0001 30.9918 57.3356 21.6562 68.8516 21.6562" stroke="white"/>
<path d="M47.8515 8.16509e-05C47.8515 11.516 38.516 20.8516 27 20.8516" stroke="white"/>
<path d="M95.031 21.0778C90.0174 21.0778 85.9531 17.0136 85.9531 12" stroke="white"/>
<path d="M76.8128 21.43C81.8263 21.43 85.8906 25.4943 85.8906 30.5078" stroke="white"/>
<path d="M85.9534 30.5075C85.9534 25.494 90.0177 21.4297 95.0312 21.4297" stroke="white"/>
<path d="M85.8903 12.0003C85.8903 17.0138 81.8261 21.0781 76.8125 21.0781" stroke="white"/>
<path d="M18.2185 21.0778C13.2049 21.0778 9.14062 17.0136 9.14062 12" stroke="white"/>
<path d="M0.000279982 21.43C5.01384 21.43 9.07813 25.4943 9.07812 30.5078" stroke="white"/>
<path d="M9.1409 30.5075C9.1409 25.494 13.2052 21.4297 18.2188 21.4297" stroke="white"/>
<path d="M9.07785 12.0003C9.07785 17.0138 5.01356 21.0781 0 21.0781" stroke="white"/>
</svg>
